<svg id="Layer_1" data-name="Layer 1" xmlns="http://www.w3.org/2000/svg" viewBox="0 0 32 32"><defs><style>.cls-1{fill:#fff;}</style></defs><title>dribbble</title><path class="cls-1" d="M16,32A16,16,0,1,1,32,16,16,16,0,0,1,16,32ZM29.49,18.19A19.94,19.94,0,0,0,21,17.61a57.37,57.37,0,0,1,2.65,9.74A13.68,13.68,0,0,0,29.49,18.19ZM21.34,28.6a57.3,57.3,0,0,0-2.92-10.36l-.09,0C10.62,21,7.86,26.3,7.61,26.8a13.62,13.62,0,0,0,13.73,1.8ZM5.85,25.16c.31-.53,4.06-6.74,11.11-9l.53-.16c-.34-.78-.71-1.56-1.11-2.32a50,50,0,0,1-14,1.94c0,.14,0,.28,0,.42A13.6,13.6,0,0,0,5.85,25.16ZM2.62,13.22a51.22,51.22,0,0,0,12.64-1.66,89.07,89.07,0,0,0-5.07-7.91A13.75,13.75,0,0,0,2.62,13.22ZM12.8,2.73a75.26,75.26,0,0,1,5.1,8A15.44,15.44,0,0,0,25.06,5.8,13.62,13.62,0,0,0,16,2.35,14,14,0,0,0,12.8,2.73ZM26.58,7.38A18.3,18.3,0,0,1,19,12.77q.48,1,.9,2l.3.7a32.26,32.26,0,0,1,9.52.44A13.67,13.67,0,0,0,26.58,7.38Z"/></svg>